<?xml version="1.0" encoding="utf-8"?>
<!-- Generator: Adobe Illustrator 25.0.0, SVG Export Plug-In . SVG Version: 6.00 Build 0)  -->
<svg version="1.1" id="Layer_1" xmlns="http://www.w3.org/2000/svg" xmlns:xlink="http://www.w3.org/1999/xlink" x="0px" y="0px"
	 viewBox="0 0 1135.7 303.5" style="enable-background:new 0 0 1135.7 303.5;" xml:space="preserve">
<style type="text/css">
	.st0{fill:#0096F5;}
	.st1{fill:#404040;}
	.st2{fill:#424242;}
</style>
<g>
	<g>
		<rect y="0.4" class="st0" width="34.8" height="34.8"/>
		<rect y="69.9" class="st0" width="34.8" height="139.2"/>
		<rect y="174.3" class="st0" width="139.2" height="34.8"/>
		<rect x="173.9" y="174.3" class="st0" width="34.8" height="34.8"/>
		<rect x="173.9" y="0.4" class="st0" width="34.8" height="139.2"/>
		<rect x="69.5" y="0.4" class="st0" width="139.2" height="34.8"/>
		<rect x="69.5" y="69.9" class="st0" width="69.5" height="69.5"/>
		<path class="st1" d="M278.3,174.3V35.2h16.2v124.1h81.3v15.1h-97.5V174.3z"/>
		<path class="st1" d="M458.2,35.2h3.7l68.6,139.2H512l-12.3-24.1h-79.1l-12.3,24.1h-18.3L458.2,35.2z M461,68.1h-1.8l-29.5,64.5
			l-1.2,2.1h63.4l-1.2-2.1L461,68.1z"/>
		<path class="st1" d="M509.6,35.2h113.9v15.1h-48.9v124.1h-16.2V50.2h-48.7v-15H509.6z"/>
		<path class="st1" d="M663.2,174.3H647V35.2h16.2V174.3z"/>
		<path class="st1" d="M824.6,174.3h-4.8l-100.5-105v105h-16.2V35.2h4.8l100.5,104.6V35.2h16.2V174.3z"/>
		<path class="st1" d="M913.9,35.2h5.6l73.1,139.2h-38.1l-7.7-16.4h-60.5l-7.4,16.4h-37.8L913.9,35.2z M917.4,94h-1.8l-17.2,36.4
			l-2.1,3.7h40.3l-2.1-3.7L917.4,94z"/>
		<path class="st1" d="M1062,174.3h-57.8V35.2h57.8c46.5,0,73.7,29.7,73.7,69.5C1135.7,144.7,1108.3,174.3,1062,174.3z M1037.8,64.2
			v81.2h21.5c24.1,0,41.5-13.7,41.5-40.6s-17.4-40.6-41.5-40.6C1059.4,64.2,1037.8,64.2,1037.8,64.2z"/>
	</g>
	<g>
		<g>
			<path class="st2" d="M1000.4,302h-20.7l7.4-52.6h20.7c15.6,0,24.6,9.4,24.6,22.7C1032.4,289.3,1019.5,302,1000.4,302z
				 M996.3,258.7l-4.7,34h9.4c11.3,0,20.3-7,20.3-19.6c0-9.4-6.4-14.5-15.6-14.5H996.3z"/>
			<path class="st2" d="M1041.5,288.3c0,0,6.2,5.1,14.8,5.1c7,0,9.8-3,9.8-6.6c0-3-2.4-4.7-10.3-7c-10.4-3.1-16.1-7-16.1-14.2
				c0-10.2,8.1-17.4,22.9-17.4c14.1,0,19.1,5.4,19.1,5.4l-6.8,8.7c0,0-5-4.4-13.6-4.4c-6.3,0-9.4,2.3-9.4,5.8c0,2.8,2.6,4.3,10,6.3
				c11.3,3.2,16.7,7.4,16.7,14.6c0,9.8-7.4,18.4-23.3,18.4c-14.5,0-20.6-6.8-20.6-6.8L1041.5,288.3z"/>
			<path class="st2" d="M1092.6,249.4h23.9c12,0,19.2,5.7,19.2,15.6c0,13.7-10.7,21.2-25.1,21.2h-12.5l-2.2,15.8h-10.6L1092.6,249.4
				z M1114.7,258.7h-12.8l-2.6,18.5h13c7.6,0,12.4-3.4,12.4-10.6C1124.6,261.4,1120.9,258.7,1114.7,258.7z"/>
		</g>
	</g>
</g>
</svg>
